<mxfile host="app.diagrams.net" modified="2024-04-24T09:37:36.391Z" agent="Mozilla/5.0 (Windows NT 10.0; Win64; x64) AppleWebKit/537.36 (KHTML, like Gecko) Chrome/124.0.0.0 Safari/537.36" etag="21XtooXmJIoaBuQM5Gpj" version="24.2.3" type="device">
  <diagram id="C5RBs43oDa-KdzZeNtuy" name="Page-1">
    <mxGraphModel dx="1434" dy="756" grid="1" gridSize="10" guides="1" tooltips="1" connect="1" arrows="1" fold="1" page="1" pageScale="1" pageWidth="827" pageHeight="1169" math="0" shadow="0">
      <root>
        <mxCell id="WIyWlLk6GJQsqaUBKTNV-0" />
        <mxCell id="WIyWlLk6GJQsqaUBKTNV-1" parent="WIyWlLk6GJQsqaUBKTNV-0" />
        <mxCell id="aEIATXMnk0go443oO_nf-14" style="edgeStyle=orthogonalEdgeStyle;rounded=0;orthogonalLoop=1;jettySize=auto;html=1;entryX=0.5;entryY=0;entryDx=0;entryDy=0;" edge="1" parent="WIyWlLk6GJQsqaUBKTNV-1" source="aEIATXMnk0go443oO_nf-15" target="aEIATXMnk0go443oO_nf-19">
          <mxGeometry relative="1" as="geometry" />
        </mxCell>
        <mxCell id="aEIATXMnk0go443oO_nf-15" value="Start" style="ellipse;whiteSpace=wrap;html=1;" vertex="1" parent="WIyWlLk6GJQsqaUBKTNV-1">
          <mxGeometry x="360" width="80" height="30" as="geometry" />
        </mxCell>
        <mxCell id="aEIATXMnk0go443oO_nf-16" style="edgeStyle=orthogonalEdgeStyle;rounded=0;orthogonalLoop=1;jettySize=auto;html=1;" edge="1" parent="WIyWlLk6GJQsqaUBKTNV-1" source="aEIATXMnk0go443oO_nf-17" target="aEIATXMnk0go443oO_nf-21">
          <mxGeometry relative="1" as="geometry">
            <mxPoint x="400" y="240" as="targetPoint" />
          </mxGeometry>
        </mxCell>
        <mxCell id="aEIATXMnk0go443oO_nf-17" value="image = next image in image list" style="rounded=0;whiteSpace=wrap;html=1;" vertex="1" parent="WIyWlLk6GJQsqaUBKTNV-1">
          <mxGeometry x="310" y="110" width="180" height="30" as="geometry" />
        </mxCell>
        <mxCell id="aEIATXMnk0go443oO_nf-18" style="edgeStyle=orthogonalEdgeStyle;rounded=0;orthogonalLoop=1;jettySize=auto;html=1;entryX=0.5;entryY=0;entryDx=0;entryDy=0;" edge="1" parent="WIyWlLk6GJQsqaUBKTNV-1" source="aEIATXMnk0go443oO_nf-19" target="aEIATXMnk0go443oO_nf-17">
          <mxGeometry relative="1" as="geometry" />
        </mxCell>
        <mxCell id="aEIATXMnk0go443oO_nf-19" value="image list,&lt;div&gt;model&lt;/div&gt;" style="shape=parallelogram;perimeter=parallelogramPerimeter;whiteSpace=wrap;html=1;fixedSize=1;" vertex="1" parent="WIyWlLk6GJQsqaUBKTNV-1">
          <mxGeometry x="325" y="50" width="150" height="40" as="geometry" />
        </mxCell>
        <mxCell id="aEIATXMnk0go443oO_nf-20" style="edgeStyle=orthogonalEdgeStyle;rounded=0;orthogonalLoop=1;jettySize=auto;html=1;" edge="1" parent="WIyWlLk6GJQsqaUBKTNV-1" source="aEIATXMnk0go443oO_nf-21" target="aEIATXMnk0go443oO_nf-23">
          <mxGeometry relative="1" as="geometry">
            <mxPoint x="400" y="350" as="targetPoint" />
          </mxGeometry>
        </mxCell>
        <mxCell id="aEIATXMnk0go443oO_nf-21" value="Extract the face from the image using the DeepFace library and mtcnn backend and store it in face_image." style="rounded=0;whiteSpace=wrap;html=1;" vertex="1" parent="WIyWlLk6GJQsqaUBKTNV-1">
          <mxGeometry x="270" y="160" width="260" height="50" as="geometry" />
        </mxCell>
        <mxCell id="aEIATXMnk0go443oO_nf-22" style="edgeStyle=orthogonalEdgeStyle;rounded=0;orthogonalLoop=1;jettySize=auto;html=1;entryX=0.5;entryY=0;entryDx=0;entryDy=0;" edge="1" parent="WIyWlLk6GJQsqaUBKTNV-1" source="aEIATXMnk0go443oO_nf-23" target="aEIATXMnk0go443oO_nf-25">
          <mxGeometry relative="1" as="geometry" />
        </mxCell>
        <mxCell id="aEIATXMnk0go443oO_nf-23" value="Extract the features from the face_image using the passed model." style="rounded=0;whiteSpace=wrap;html=1;" vertex="1" parent="WIyWlLk6GJQsqaUBKTNV-1">
          <mxGeometry x="280" y="230" width="240" height="40" as="geometry" />
        </mxCell>
        <mxCell id="aEIATXMnk0go443oO_nf-24" style="edgeStyle=orthogonalEdgeStyle;rounded=0;orthogonalLoop=1;jettySize=auto;html=1;entryX=0.5;entryY=0;entryDx=0;entryDy=0;" edge="1" parent="WIyWlLk6GJQsqaUBKTNV-1" source="aEIATXMnk0go443oO_nf-25" target="aEIATXMnk0go443oO_nf-27">
          <mxGeometry relative="1" as="geometry">
            <mxPoint x="220" y="360" as="targetPoint" />
          </mxGeometry>
        </mxCell>
        <mxCell id="aEIATXMnk0go443oO_nf-25" value="Extract the confidence scores for the gender, race and age labels and store them in gender_mapping, race_mapping and age_mapping respectively." style="rounded=0;whiteSpace=wrap;html=1;" vertex="1" parent="WIyWlLk6GJQsqaUBKTNV-1">
          <mxGeometry x="260" y="290" width="280" height="60" as="geometry" />
        </mxCell>
        <mxCell id="aEIATXMnk0go443oO_nf-37" style="edgeStyle=orthogonalEdgeStyle;rounded=0;orthogonalLoop=1;jettySize=auto;html=1;entryX=0.5;entryY=0;entryDx=0;entryDy=0;exitX=0.5;exitY=1;exitDx=0;exitDy=0;" edge="1" parent="WIyWlLk6GJQsqaUBKTNV-1" source="aEIATXMnk0go443oO_nf-27" target="aEIATXMnk0go443oO_nf-38">
          <mxGeometry relative="1" as="geometry">
            <mxPoint x="420" y="460" as="targetPoint" />
            <mxPoint x="420" y="450" as="sourcePoint" />
            <Array as="points">
              <mxPoint x="400" y="450" />
              <mxPoint x="400" y="450" />
            </Array>
          </mxGeometry>
        </mxCell>
        <mxCell id="aEIATXMnk0go443oO_nf-27" value="&lt;div&gt;&lt;span style=&quot;background-color: initial;&quot;&gt;Determine the gender, race and age labels with the highest confidence adn store them in gender_label, race_label and age_label respectively.&lt;/span&gt;&lt;br&gt;&lt;/div&gt;" style="rounded=0;whiteSpace=wrap;html=1;" vertex="1" parent="WIyWlLk6GJQsqaUBKTNV-1">
          <mxGeometry x="240" y="370" width="320" height="60" as="geometry" />
        </mxCell>
        <mxCell id="aEIATXMnk0go443oO_nf-34" style="edgeStyle=orthogonalEdgeStyle;rounded=0;orthogonalLoop=1;jettySize=auto;html=1;entryX=0.5;entryY=0;entryDx=0;entryDy=0;" edge="1" parent="WIyWlLk6GJQsqaUBKTNV-1" source="aEIATXMnk0go443oO_nf-35" target="aEIATXMnk0go443oO_nf-36">
          <mxGeometry relative="1" as="geometry" />
        </mxCell>
        <mxCell id="aEIATXMnk0go443oO_nf-35" value="Return&amp;nbsp;FairFaceDict" style="shape=parallelogram;perimeter=parallelogramPerimeter;whiteSpace=wrap;html=1;fixedSize=1;" vertex="1" parent="WIyWlLk6GJQsqaUBKTNV-1">
          <mxGeometry x="320" y="700" width="160" height="30" as="geometry" />
        </mxCell>
        <mxCell id="aEIATXMnk0go443oO_nf-36" value="End" style="ellipse;whiteSpace=wrap;html=1;" vertex="1" parent="WIyWlLk6GJQsqaUBKTNV-1">
          <mxGeometry x="360" y="750" width="80" height="30" as="geometry" />
        </mxCell>
        <mxCell id="aEIATXMnk0go443oO_nf-39" style="edgeStyle=orthogonalEdgeStyle;rounded=0;orthogonalLoop=1;jettySize=auto;html=1;" edge="1" parent="WIyWlLk6GJQsqaUBKTNV-1" source="aEIATXMnk0go443oO_nf-38" target="aEIATXMnk0go443oO_nf-40">
          <mxGeometry relative="1" as="geometry">
            <mxPoint x="400" y="550" as="targetPoint" />
          </mxGeometry>
        </mxCell>
        <mxCell id="aEIATXMnk0go443oO_nf-38" value="Store the labels and confidence scores in the ImageInfo and imageConfidenceData&amp;nbsp;dictionaries.&amp;nbsp;" style="rounded=0;whiteSpace=wrap;html=1;" vertex="1" parent="WIyWlLk6GJQsqaUBKTNV-1">
          <mxGeometry x="240" y="450" width="320" height="40" as="geometry" />
        </mxCell>
        <mxCell id="aEIATXMnk0go443oO_nf-43" style="edgeStyle=orthogonalEdgeStyle;rounded=0;orthogonalLoop=1;jettySize=auto;html=1;entryX=0.5;entryY=0;entryDx=0;entryDy=0;" edge="1" parent="WIyWlLk6GJQsqaUBKTNV-1" source="aEIATXMnk0go443oO_nf-40" target="aEIATXMnk0go443oO_nf-41">
          <mxGeometry relative="1" as="geometry" />
        </mxCell>
        <mxCell id="aEIATXMnk0go443oO_nf-40" value="Store the face image, ImageInfo and imageConfidenceData in the FairFaceDict dictionary." style="rounded=0;whiteSpace=wrap;html=1;" vertex="1" parent="WIyWlLk6GJQsqaUBKTNV-1">
          <mxGeometry x="280" y="510" width="240" height="50" as="geometry" />
        </mxCell>
        <mxCell id="aEIATXMnk0go443oO_nf-42" value="Yes" style="edgeStyle=orthogonalEdgeStyle;rounded=0;orthogonalLoop=1;jettySize=auto;html=1;entryX=0.5;entryY=0;entryDx=0;entryDy=0;" edge="1" parent="WIyWlLk6GJQsqaUBKTNV-1" source="aEIATXMnk0go443oO_nf-41" target="aEIATXMnk0go443oO_nf-35">
          <mxGeometry relative="1" as="geometry" />
        </mxCell>
        <mxCell id="aEIATXMnk0go443oO_nf-44" value="No" style="edgeStyle=orthogonalEdgeStyle;rounded=0;orthogonalLoop=1;jettySize=auto;html=1;entryX=1;entryY=0.5;entryDx=0;entryDy=0;" edge="1" parent="WIyWlLk6GJQsqaUBKTNV-1" source="aEIATXMnk0go443oO_nf-41" target="aEIATXMnk0go443oO_nf-17">
          <mxGeometry relative="1" as="geometry">
            <Array as="points">
              <mxPoint x="600" y="620" />
              <mxPoint x="600" y="125" />
            </Array>
          </mxGeometry>
        </mxCell>
        <mxCell id="aEIATXMnk0go443oO_nf-41" value="all images&amp;nbsp;&lt;span style=&quot;background-color: initial;&quot;&gt;in image list&amp;nbsp;&lt;/span&gt;&lt;span style=&quot;background-color: initial;&quot;&gt;processed&lt;/span&gt;" style="rhombus;whiteSpace=wrap;html=1;" vertex="1" parent="WIyWlLk6GJQsqaUBKTNV-1">
          <mxGeometry x="327.5" y="580" width="145" height="80" as="geometry" />
        </mxCell>
      </root>
    </mxGraphModel>
  </diagram>
</mxfile>
